<svg width="1024" height="1024" viewBox="0 0 1024 1024" xmlns="http://www.w3.org/2000/svg" role="img" aria-label="Threadmill app icon">
  <rect x="32" y="32" width="960" height="960" rx="220" fill="#0d0f12"/>
  <path d="M 599.74 544.03 L 600.07 549.75 L 600.03 555.61 L 599.60 561.58 L 598.78 567.63 L 597.56 573.73 L 595.92 579.86 L 593.85 585.99 L 591.37 592.10 L 588.45 598.15 L 585.10 604.12 L 581.32 609.97 L 577.12 615.69 L 572.50 621.23 L 567.45 626.56 L 562.00 631.67 L 556.16 636.52 L 549.93 641.08 L 543.33 645.33 L 536.38 649.23 L 529.09 652.77 L 521.48 655.91 L 513.58 658.63 L 505.41 660.91 L 497.00 662.74 L 488.36 664.07 L 479.54 664.91 L 470.55 665.23 L 461.43 665.02 L 452.21 664.26 L 442.92 662.94 L 433.60 661.06 L 424.28 658.60 L 415.00 655.56 L 405.79 651.94 L 396.69 647.73 L 387.74 642.95 L 378.97 637.58 L 370.42 631.64 L 362.13 625.13 L 354.12 618.07 L 346.45 610.47 L 339.14 602.34 L 332.24 593.70 L 325.76 584.58 L 319.75 574.98 L 314.24 564.94 L 309.26 554.49 L 304.84 543.65 L 301.01 532.44 L 297.79 520.91 L 295.20 509.09 L 293.27 497.01 L 292.03 484.71 L 291.48 472.23 L 291.64 459.61 L 292.53 446.89 L 294.17 434.11 L 296.55 421.31 L 299.68 408.55 L 303.58 395.85 L 308.23 383.28 L 313.64 370.87 L 319.81 358.67 L 326.72 346.72 L 334.38 335.08 L 342.75 323.79 L 351.84 312.88 L 361.62 302.41 L 372.06 292.42 L 383.16 282.95 L 394.88 274.04 L 407.19 265.74 L 420.06 258.07 L 433.46 251.08 L 447.35 244.81 L 461.70 239.28 L 476.46 234.53 L 491.59 230.58 L 507.05 227.46 L 522.79 225.20 L 538.77 223.82 L 554.92 223.33 L 571.21 223.76 L 587.59 225.11 L 603.99 227.40 L 620.36 230.62 L 636.66 234.80 L 652.82 239.92 L 668.79 245.99 L 684.52 253.00" fill="none" stroke="#4a9eff" stroke-width="56" stroke-linecap="round" stroke-linejoin="round"/>
  <path d="M 440.40 571.97 L 435.27 569.39 L 430.22 566.43 L 425.26 563.08 L 420.44 559.34 L 415.76 555.23 L 411.27 550.74 L 406.99 545.89 L 402.95 540.68 L 399.17 535.13 L 395.67 529.25 L 392.49 523.05 L 389.64 516.55 L 387.16 509.78 L 385.06 502.74 L 383.36 495.47 L 382.08 487.98 L 381.25 480.31 L 380.87 472.47 L 380.97 464.49 L 381.55 456.41 L 382.63 448.26 L 384.22 440.06 L 386.33 431.84 L 388.96 423.64 L 392.12 415.49 L 395.81 407.43 L 400.02 399.48 L 404.77 391.69 L 410.04 384.09 L 415.82 376.70 L 422.11 369.57 L 428.90 362.73 L 436.17 356.21 L 443.91 350.05 L 452.10 344.27 L 460.73 338.91 L 469.76 334.00 L 479.18 329.57 L 488.96 325.64 L 499.08 322.24 L 509.50 319.40 L 520.19 317.13 L 531.12 315.47 L 542.27 314.42 L 553.58 314.02 L 565.03 314.27 L 576.57 315.18 L 588.17 316.77 L 599.79 319.05 L 611.39 322.03 L 622.92 325.70 L 634.34 330.07 L 645.62 335.14 L 656.70 340.90 L 667.55 347.36 L 678.12 354.49 L 688.37 362.30 L 698.26 370.76 L 707.75 379.86 L 716.80 389.57 L 725.36 399.89 L 733.40 410.78 L 740.88 422.23 L 747.77 434.18 L 754.03 446.63 L 759.62 459.53 L 764.52 472.86 L 768.70 486.56 L 772.13 500.60 L 774.78 514.95 L 776.64 529.55 L 777.68 544.36 L 777.88 559.34 L 777.23 574.44 L 775.72 589.61 L 773.33 604.80 L 770.07 619.96 L 765.92 635.04 L 760.89 649.98 L 754.98 664.74 L 748.19 679.27 L 740.53 693.51 L 732.02 707.40 L 722.66 720.90 L 712.48 733.96 L 701.50 746.53 L 689.73 758.56 L 677.22 769.99 L 663.97 780.79 L 650.04 790.91" fill="none" stroke="#4a9eff" stroke-opacity="0.88" stroke-width="48" stroke-linecap="round" stroke-linejoin="round"/>
  <path d="M 495.87 420.00 L 500.66 416.85 L 505.76 413.96 L 511.13 411.34 L 516.78 409.03 L 522.68 407.04 L 528.81 405.40 L 535.15 404.12 L 541.69 403.22 L 548.38 402.72 L 555.23 402.63 L 562.19 402.98 L 569.23 403.76 L 576.35 405.00 L 583.49 406.69 L 590.64 408.86 L 597.76 411.50 L 604.82 414.61 L 611.80 418.20 L 618.66 422.27 L 625.36 426.82 L 631.89 431.83 L 638.19 437.31 L 644.26 443.25 L 650.04 449.63 L 655.52 456.43 L 660.66 463.66 L 665.43 471.28 L 669.81 479.29 L 673.76 487.65 L 677.26 496.35 L 680.29 505.37 L 682.82 514.67 L 684.83 524.22 L 686.30 534.01 L 687.20 543.99 L 687.53 554.14 L 687.27 564.42 L 686.40 574.79 L 684.91 585.23 L 682.80 595.69 L 680.05 606.13 L 676.67 616.53 L 672.64 626.83 L 667.97 637.00 L 662.67 647.00 L 656.73 656.79 L 650.16 666.33 L 642.98 675.58 L 635.20 684.50 L 626.83 693.06 L 617.88 701.21 L 608.39 708.92 L 598.36 716.15 L 587.82 722.86 L 576.81 729.03 L 565.35 734.62 L 553.46 739.59 L 541.19 743.93 L 528.56 747.60 L 515.62 750.57 L 502.41 752.83 L 488.95 754.35 L 475.31 755.11 L 461.50 755.09 L 447.60 754.29 L 433.63 752.68 L 419.64 750.26 L 405.68 747.03 L 391.81 742.98 L 378.06 738.10 L 364.48 732.41 L 351.14 725.90 L 338.06 718.59 L 325.31 710.48 L 312.93 701.58 L 300.97 691.92 L 289.47 681.51 L 278.49 670.38 L 268.06 658.55 L 258.23 646.05 L 249.05 632.91 L 240.55 619.16 L 232.77 604.84 L 225.75 589.99 L 219.53 574.64 L 214.14 558.84 L 209.61 542.64 L 205.96 526.08 L 203.23 509.22 L 201.44 492.09" fill="none" stroke="#4a9eff" stroke-opacity="0.74" stroke-width="40" stroke-linecap="round" stroke-linejoin="round"/>
  <circle cx="512" cy="512" r="34" fill="#0d0f12"/>
</svg>
